<svg version="1" xmlns="http://www.w3.org/2000/svg" width="170.667" height="170.667" viewBox="0 0 128.000000 128.000000"><path d="M0 4c0 2.2.5 4 1 4 .6 0 1 .9 1 2s-.4 2-1 2c-.5 0-1 2.2-1 5 0 2.7.5 5 1 5 .6 0 1 2 1 4.5S2.5 31 3 31c.6 0 1 .7 1 1.5S3.6 34 3 34s-1 3-1 7-.4 7-1 7c-.5 0-1 1.8-1 4s.5 4 1 4c.6 0 1 4 1 10s-.4 10-1 10c-1.5 0-1.2 4.9.4 6.5.7.8 1.6 1.1 2 .8.3-.4.6 0 .6.8s-.9 2.1-2 2.9c-1.8 1.3-2 2.6-2 13.2 0 7.2.4 11.8 1 11.8s1 .9 1 2-.4 2-1 2c-1.5 0-1.2 7 .4 8.6 1.7 1.6 10.6 2 10.6.4 0-.6 1.4-1 3-1 1.7 0 3 .4 3 1 0 .5.9 1 2 1s2 .4 2 1 2.7 1 6 1 6-.4 6-1 .9-1 2-1 2-.5 2-1c0-.6.9-1 2-1s2 .4 2 1c0 .5 2.3 1 5 1 2.8 0 5-.5 5-1 0-.6.9-1 2-1 1.3 0 2 .7 2 2 0 1.9.7 2 8.9 2 6.2 0 9.1-.4 9.5-1.3.5-.9.7-.9 1.2 0 .7 1.7 6.1 1.7 6.8 0 .5-.9.7-.9 1.2 0 .7 1.6 26.4 1.9 26.4.3 0-.6 1.8-1 4-1s4 .4 4 1c0 .5 1.4 1 3 1 1.7 0 3-.5 3-1 0-.6.9-1 2-1 1.8 0 2-.7 2-6 0-3.3-.4-6-1-6s-1-2.7-1-6 .4-6 1-6 1-4 1-10-.4-10-1-10c-.5 0-1-.9-1-2s.5-2 1-2c.6 0 1-1.8 1-4s-.4-4-.9-4-1.1-1-1.3-2.3c-.2-1.2-.7-2-1.3-1.7-.5.3-.9.8-.8 1.2.2.5-.6.8-1.7.8s-2 .4-2 1c0 .5.7 1 1.6 1 .8 0 2.2.6 3 1.4 1.6 1.7 1.9 4.6.4 4.6-.5 0-1 1.3-1 3 0 3-1.4 4.1-2.3 1.7-.2-.6-.8-.9-1.2-.5-1 .9 1.9 3.8 3.9 3.8 1.3 0 1.6 1.4 1.6 8 0 4.7-.4 8-1 8-.5 0-1 .9-1 2 0 1.3-.7 2-2 2-1.1 0-2 .4-2 1 0 .5.5 1 1 1 .6 0 1 .7 1 1.5s.5 1.5 1 1.5c.6 0 1 1.6 1 3.5s.5 3.5 1 3.5c.6 0 1 1.8 1 4 0 3.3-.3 4-2 4-1.1 0-2 .4-2 1 0 .5-.5 1-1.1 1-.5 0-.7-.5-.4-1 .4-.6-.6-1-2.3-1-1.9 0-4-1.1-6-3-1.8-1.7-3.4-3-3.7-3-1.1 0-.4 3.9.7 4.2.9.3.8.9-.4 2.1-1.4 1.4-3.8 1.7-13.2 1.7-10.8 0-11.6-.1-11.6-1.9 0-1.1.6-2.1 1.3-2.4.6-.2.9-.8.5-1.2-1.1-1.2-3.8 1.4-3.8 3.6 0 1.2-.7 1.9-2 1.9-1.1 0-2-.5-2-1 0-.6-1.6-1-3.6-1-2.1 0-3.3.4-2.9 1 .4.6-2 1-6.3 1-6.8 0-8.2-.6-8.6-4.2-.3-1.9-1.8-1.9-3.5 0-1.4 1.7-3 2.2-6.5 2.2-2.5 0-4.6-.5-4.6-1 0-.6-.9-1-2-1s-2 .4-2 1c0 .5-1.6 1-3.5 1s-3.5.4-3.5 1c0 .5-1.1 1-2.5 1-2.1 0-2.5-.5-2.5-3 0-3.4-1.5-4-2.3-1-.5 2-3.7 2.9-3.7 1 0-.6-.9-1-2-1-1.3 0-2-.7-2-2 0-3.1-2.7-2.3-3.3 1-.6 2.6-1.1 3-4.1 3-1.9 0-3.8-.4-4.1-1-.3-.5-.1-1 .4-1 .6 0 1.1-.5 1.1-1 0-.6-.9-1-2-1s-2-.5-2-1c0-.6.9-1 2-1s2-.5 2-1c0-.6.9-1 2-1 1.3 0 2-.7 2-2 0-1.1-.7-2-1.6-2-.8 0-1.2.4-.9 1 .3.5-.3 1-1.4 1-1.4 0-2.1-.6-2.1-2 0-1.1-.4-2-1-2s-1-4.3-1-11c0-10.3.1-11 2-11 1.1 0 2-.5 2-1 0-1.4 3.8-1.2 4.3.2.2.8.8.9 1.3.4s.4-1.1-.3-1.3c-2-.7-1.5-2.3.7-2.3 1.1 0 2-.5 2-1 0-1.2-1.6-1.3-5.6-.1-2.1.6-3.6.5-4.7-.4C1.9 81.2 1.3 76 3 76c.5 0 1-3 1.2-6.8.2-5 .7-6.7 1.7-6.7 2.3 0 2.4-2.2.1-2.8-1.4-.3-2-1.3-2-3.1 0-1.4-.4-2.6-1-2.6-.5 0-1-.9-1-2.1 0-1.1.5-1.7 1-1.4.6.4 1-1.1 1-3.9 0-2.6.5-4.7 1.3-5 .9-.5 1-.7 0-1.2C2.5 39.1 5 34 8.4 34c.9 0 1.6-.7 1.6-1.5 0-1-1-1.5-3-1.5H4v-6c0-3.3-.4-6-1-6-.5 0-1-1.5-1-3.4 0-2.9.5-3.7 3-4.8 2.8-1.2 3.6-3.2 1.4-3.4C4 7.2 2 5.6 2 3.9 2 2.9 2.5 2 3 2c.6 0 1 .4 1 1s3.5 1 8.6 1C21.4 4 24 5 24 8.4c0 .9.5 1.6 1 1.6.6 0 1-1.4 1-3 0-2.9.1-3 5-3 2.8 0 5-.5 5-1 0-1.8 3.2-1 5.2 1.2l2 2.3L45 4.2C46.4 2.5 47.9 2 51.4 2c3.9 0 4.6.3 4.6 2 0 1.1.4 2 .8 2s1.4-.9 2.2-2c.8-1.2 2.6-2 4.2-2 1.5 0 2.8-.5 2.8-1 0-1.5-7.7-1.2-8.4.2-.5 1-.7 1-1.2 0-.3-.7-2.6-1.2-6-1.2-4.7 0-5.4.2-5.4 2 0 1.1-.6 2-1.3 2-.7 0-1.9-.9-2.7-2-1.5-2.1-7-2.8-7-1 0 .5-1.8 1-4 1s-4 .4-4 1c0 .5-.9 1-2 1s-2-.5-2-1c0-.6-3.7-1-9-1s-9-.4-9-1-.9-1-2-1C.3 0 0 .7 0 4z"/><path d="M74 1c0 .5-.9 1-1.9 1-1.1 0-2.2.6-2.4 1.2-.4 1-.8.9-1.6-.2-.8-1.2-1.3-1.2-2.3-.2-.9.9-.9 1.2.5 1.2.9 0 1.7.4 1.7 1 0 .5.9 1 2 1s2-.5 2-1c0-.6.9-1 2-1s2-.5 2-1c0-.6 1.6-1 3.5-1 2.8 0 3.5.4 3.5 2 0 1.1.7 2 1.5 2S86 5.1 86 4c0-1.8.7-2 6-2 3.3 0 6 .4 6 1 0 .5 2.3 1 5 1 4.3 0 5 .3 5 2 0 1.1.4 2 .9 2s1.1-.9 1.4-2c.4-1.7 1.4-2 6.1-2 3.1 0 5.6-.5 5.6-1 0-.6.9-1 2-1s2 .4 2 1c0 .5-.4 1-1 1-.5 0-1 .9-1 2s.5 2 1 2c.6 0 1 1.8 1 4s-.4 4-1 4c-.5 0-1 .6-1 1.4 0 .7-.9 1.6-2 1.9-2.4.6-2.7 2.7-.4 2.7.9 0 1.8.9 2.1 2 .3 1.1.9 2 1.4 2 .5 0 .9 3.1.9 7 0 4-.4 7-1 7-.5 0-1 .9-1 2 0 1.3-.7 2-2 2-1.1 0-2 .4-2 .9s.9 1.1 2 1.4c1.2.3 2 1.4 2 2.7 0 1.1.5 1.8 1 1.5.6-.4 1 2.3 1 7.4 0 4.7.4 8.1 1 8.1s1-3.7 1-9-.4-9-1-9c-.5 0-1-1.8-1-4s.5-4 1-4c.6 0 1-3.3 1-8s-.4-8-1-8c-.5 0-1-1.4-1-3 0-1.7.5-3 1-3 1.5 0 1.2-9.7-.2-10.4-1-.5-1-.7 0-1.2.6-.3 1.2-1.9 1.2-3.5 0-2.6-.4-2.9-3-2.9-1.6 0-3 .4-3 1s-4.7 1-12 1-12-.4-12-1-4.7-1-12-1-12 .4-12 1zM52 7c0 .5.9 1 1.9 1 1.1 0 2.1.6 2.4 1.2.2.7.8 1 1.2.6C58.7 8.7 56.1 6 53.9 6c-1.1 0-1.9.4-1.9 1zM24.6 23.9c-.3.5.1 1.4.9 2.1 1.1.9 1.5.9 1.5.1 0-.7.4-.9 1-.6.6.3.7-.1.4-.9-.7-1.7-3-2.1-3.8-.7zM27.1 28.7c-1.1.4-.8 1 1 2.4 2 1.6 2.1 1.8.4 1.3-1.7-.5-1.8-.4-.5.8.8.8 2.1 2 2.9 2.8 1.1 1.3 1.2 1.1.1-1-.8-1.4-1.3-2.6-1.2-2.8.1-.1.2-1.1.2-2.2 0-2-.5-2.3-2.9-1.3zM51.6 30.7c-.6 1.5-.9 1.5-1.7.3-.9-1.2-1-1.2-.5.2.3 1 .1 1.8-.5 1.8s-.7.5-.4 1c.4.6 1.5 0 2.7-1.5 1.1-1.4 1.8-2.8 1.5-3.1-.2-.3-.8.3-1.1 1.3zM54.6 29.7c.5.5 1.2 1.2 1.6 1.8.4.6.8.2.8-.8 0-.9-.7-1.7-1.7-1.7-.9 0-1.2.3-.7.7z"/><path d="M67 30.1c0 .5.4.8.9.5.5-.3 1.5.2 2.2 1.2 1.1 1.4 1.1 1.5 0 .5-1.8-1.5-8.2 1.3-7.4 3.3.3.8.9 1.1 1.4.8.5-.3.9-.1.9.4 0 .6-.7 1.3-1.5 1.6-1.3.4-1.4 1-.5 2.6.6 1.1.9 2.4.6 2.9-.6.9-5.3.7-7.8-.4-1.2-.5-1.6-.2-1.4 1.2.2 1 .7 1.8 1.2 1.8s1.4.4 2.1.8c.6.4 1.3.3 1.5-.3.2-.6 1.4-.4 3 .4 1.5.8 2.9 1.2 3.1.9.3-.3 1.1.5 1.7 1.7.6 1.2.8 2.5.4 2.8-.4.4-.9.1-1.1-.6-.4-1-.8-1-2.1 0-1.4 1.1-1.5 1-.9-.6s.5-1.7-.8-.6-1.8 1-3-.6c-1.3-1.7-1.4-1.7-.9-.1.4 1.2.2 1.6-.8 1.2-.9-.4-1.5 0-1.5.9 0 .8.5 1.3 1 .9.5-.3.3.5-.4 1.8-.7 1.5-1.4 1.9-1.7 1.1-.5-1.6-2.3-1.6-1.9 0 .4 2.2 5.7 7.3 6.5 6.3 1.1-1.5 4.7-1.2 4.8.5.1.8.2 2.3.3 3.3.1 1.4.5 1.6 1.9.8.9-.5 1.9-1 2.2-1.2.9-.5 5 2.1 5 3.2 0 .6-.4.7-1 .4-.5-.3-1-.1-1 .5s.8.9 1.8.6c4.5-1.4 8.2-1.6 8.2-.4 0 .6.8 2 1.8 3.1.9 1.1 1.2 1.7.5 1.4-.6-.4-1.5-.2-1.8.3-.5.8-1.3.6-2.6-.6-1.1-1-1.9-1.2-1.9-.6 0 .7-.6 1.2-1.4 1.2-1.5 0-1.6 2.4-.2 3.7.4.4 2.4.8 4.4.8 2.3 0 3.7.5 3.7 1.2s.3 1.3.8 1.3h2c2.5 0 5.5-3.8 5.2-6.5-.3-3.1 1.8-4.3 4-2.5.8.7 2.2.9 3.1.6 1.2-.5 1.5-.2 1 1.1-.4.9-.1 2 .6 2.5 1 .6 1 .8-.1.8s-1.1.3 0 1.7c1 1.1 1 1.4.2.9-.7-.4-1.3-.2-1.3.3 0 1.7 1.8 1.3 2.9-.6.5-1 1.3-1.5 1.7-1.1.4.5 1.3.3 1.9-.2.9-.8 1.4-.6 1.9.5.4 1.1.2 1.4-.6.9-.7-.5-.9-.2-.5.9.4 1.2.2 1.4-1 1-1.3-.5-1.5-.2-1 1.2.6 1.5.5 1.6-.7.6-1.1-.9-1.5-.9-1.9.1-.4 1-.6 1-.6 0-.1-.9-.9-.7-2.8.7-2.7 1.9-11.3 3.4-17.7 3.2-1.5-.1-3.3.2-4 .7-1.5 1.2-5.4 1.3-6.1.1-.4-.5-1.7-.9-3.1-.9-1.3 0-2.4-.5-2.4-1.1 0-.6-.7-.8-1.7-.5-1.4.6-1.4.4.2-1.6 1.1-1.3 2.1-2.5 2.3-2.8.2-.2.7.2 1.2 1 .7 1 1 1.1 1 .2 0-.6.5-1.2 1.1-1.2.6 0 .8.7.4 1.7-.5 1.4-.4 1.5.6.6 1-1 .9-1.7-.7-3.4-1-1.1-2.8-2.5-3.9-3-1.7-.9-1.7-.8.3 1 2.7 2.3 2.9 3.5.3 2.2-2.1-1.2-3.2-.5-2.4 1.5.3.8.2 1.4-.2 1.4-.9 0-5.5-5.2-5.5-6.2 0-1.9 1.4-3.7 2.4-3.1.7.4.7.1-.1-.9-.7-.8-.9-1.9-.5-2.3.4-.5.1-.4-.7 0-1.1.6-1.3.4-.8-.8.3-.9.1-1.9-.5-2.3-.7-.5-.8-.2-.3.6.5.9.4 1.1-.4.6-.9-.6-.9-1.1 0-2.2 1.4-1.7 2.3-1.9 1.3-.2-.4.7-.3.8.5.4 1.7-1.1-.5-3.6-3-3.6-1.1 0-1.9-.5-1.9-1.2 0-2.6-1.2 0-1.9 4.1-.1.3-.7-.2-1.3-1.1-1-1.3-1.8-1.4-3.8-.6-5.2 2.2-5.8 2-5.6-1.9.1-3.2-.3-3.8-2.3-4.3-2.1-.5-2.8-1.7-4.6-8.4l-2.1-7.8-2.4 2.1c-2.1 1.8-2.2 2-.5 1.4 1.8-.6 1.9-.5.6 1.1-.9 1.1-1.1 2-.5 2.4.6.4 1 1.6 1.1 2.7 0 1.1.4 2.9.8 4 .6 1.7.4 1.6-1-.3-1.6-2.2-1.8-2.2-3.6-.6-1 .9-1.9 2.1-1.9 2.5 0 .4-1.1 2-2.5 3.5-2.9 3.1-3.3 8-1 12.3 1.8 3.7 8.6 9.5 13.4 11.6 2 .9 4.2 1.9 5 2.4.8.4 2.9 5.2 4.6 10.6 1.8 5.5 3.8 10.1 4.5 10.3.9.3 1.1-.1.6-1.4-2-5.2-4.9-16.4-4.4-16.9.3-.4 2.8 0 5.5.8 3.9 1.2 6.3 3 11.8 8.6 3.7 3.9 7 6.9 7.3 6.6.2-.2-1.4-2.7-3.7-5.6-2.2-2.8-4.1-5.6-4.1-6.1s2.6-.6 6.3-.2c6.9.9 7 .9 14.7-.4 18.1-3.1 30.3-9.1 32.6-16.2.9-2.9.9-9.8 0-12-.3-.8-.7-2.4-.9-3.5-1-5.6-2.3-8.5-5.9-13.3-2.1-2.8-4.6-5.2-5.4-5.2-.8 0-1.3-.4-1-.8.3-.5-.8-1.6-2.3-2.5-2.5-1.4-3-1.5-4.7-.2-1 .8-1.4 1.5-.9 1.5 5.5.6 9.2 3.5 10.5 8.3.6 2.1.9 4.6.7 5.5-.3 1.2-.5 1.1-.6-.5 0-1.2-.5-2.4-1-2.7-.5-.3-.7-1.4-.4-2.5.5-2-3.3-5.5-4.9-4.5-1 .6.8 4.2 3.2 6.4 2.1 1.7 3.8 7.6 1.9 6.5-.8-.6-.8-.2 0 1.4.7 1.1 1.4 2.1 1.7 2.1.3 0 .2-.5-.1-1-.3-.6-.1-1 .5-1s.9-.4.6-.8c-.2-.4-.1-1.3.3-2 .5-.9 1.1-.9 2.6.1 2 1.5 1.2 4.2-1.1 3.3-.8-.3-1.1 0-.8.9.6 1.5 2.5 1.6 3.5.1.4-.4 1-.3 1.3.3.4.6.2 1.1-.4 1.1-.7 0-.9.8-.5 2s.2 2-.5 2c-.6 0-.9-.4-.5-.9.7-1.2-2.6-3.1-5.2-3.1-1 0-2.5-1.4-3.4-3.2-1-2.2-2.8-3.6-5.7-4.7-4.6-1.7-5.4-3.7-2-5l2.2-.8-2.3-.6c-1.6-.4-2.1-1-1.5-1.9.4-.7.3-1-.1-.5-.5.4-1.7 0-2.7-1-2-1.8-2.5-.5-.5 1.6 1 1.1.8 1.1-1.1.2-1.2-.7-2.8-.9-3.4-.5-.6.4-.8.3-.5-.3.4-.6 2.3-1.8 4.2-2.7 2-1 3.3-2.1 3-2.6-.3-.4-.1-1 .4-1.2.5-.1.1-1.4-1-2.7l-2-2.4.5 3.7c.3 2.1.1 3.4-.5 3-.5-.3-.7-.9-.5-1.3.3-.4-.9-.5-2.6-.3-2.6.4-3 .2-2.5-1.2.5-1.1.3-1.5-.4-1-.7.4-1 .1-.7-.7.3-.8 1.4-1.4 2.5-1.4 1.2 0 2.5-.3 2.9-.8.4-.4-.2-.7-1.2-.7-1.1 0-2.5-.5-3.1-1.1-.8-.8-1.1-.6-1 .7.1 1-.4 1.9-1.2 1.9-.8 0-1.6.6-1.9 1.4-.3.9 0 1.1.8.6.9-.6 1.1-.4.6.4-.6.9-1.3.8-2.7-.5-1-.9-1.9-2.2-1.9-2.8 0-.7.3-.7.8.1.5.8 1.2.7 2.7-.4 1.8-1.4 1.8-1.5.1-.9-1 .3-2.4.2-3.1-.4-.6-.5-2-1.1-3.1-1.3-1-.2-2.9-.8-4.1-1.5-2.7-1.5-3.3-1.5-3.3-.1zm2.7 19.1c-.3.7-.5.2-.5-1.2s.2-1.9.5-1.3c.2.7.2 1.9 0 2.5zm33.3-.6c0 .8-.4 1.2-1 .9-.5-.3-1-1-1-1.6 0-.5.5-.9 1-.9.6 0 1 .7 1 1.6zM77 56c0 .5-.6 1-1.4 1-.8 0-1.8-.5-2.1-1-.3-.6.3-1 1.4-1 1.2 0 2.1.4 2.1 1zM33.5 68.2c3.9 6.5 4.1 9 .4 4.6-1.1-1.1-1.9-2.9-1.9-3.9s-.5-2.1-1.1-2.5c-.7-.4-.9 0-.5 1.4.4 1.1.2 2.3-.5 2.8-.7.4-1 .2-.7-.7.3-.8.1-2.2-.4-3.2-1.7-3.3 2.7-1.9 4.7 1.5zM51 67c0 .5-.3 1-.7 1.1-.5 0-1.7.2-2.8.4-2 .4-2 .4-.1-1.1 2.3-1.6 3.6-1.8 3.6-.4zm5.6 3.2c.4.7.4 1-.1.6-.4-.4-1.4-.3-2.2.4-1.1.8-1.2.7-.7-.6.7-1.9 2-2.1 3-.4zm31.1 1c-.3.8-.6.5-.6-.6-.1-1.1.2-1.7.5-1.3.3.3.4 1.2.1 1.9zm-28.4 1.4c.3.3.1 1.5-.6 2.5-.9 1.5-.9 2.3.1 3.9 1.6 2.7 1.5 3.5-.3 1.6-.8-.8-1.5-2.2-1.5-3 0-.9-.6-1.6-1.2-1.7-1 0-1-.2 0-.6.6-.2 1.2-1.1 1.2-1.9 0-1.4 1.2-1.9 2.3-.8zM52 74c-1.4.9-.7 1.5 1.5 1 .6-.1.4.4-.3 1.2-1.1 1.1-1.4 1-2.2-.2-1-1.6-.4-3 1.3-3 .7 0 .6.4-.3 1zm-16.5 6c.3.6-.1.7-.9.4-1.8-.7-2.1-1.4-.7-1.4.6 0 1.3.4 1.6 1zM56 81c.8.5 1.1 1 .5 1-.5 0-1.7-.5-2.5-1s-1-1-.5-1c.6 0 1.7.5 2.5 1z"/><path d="M57.3 35c-.9 3.9-1.4 4.3-3.4 2.4-1.9-1.7-2-1.7-1.3.2.7 1.7.6 1.7-.9.5-2.2-1.7-2.2-.8-.1 1.4.9.9 1.3 1.9.9 2.3-.3.4-1.3-.2-2.1-1.2-.8-1.1-1.4-1.5-1.4-.9s.7 1.6 1.5 2.3c.8.7 1.3 1.6 1 2-.3.4.4 1.9 1.6 3.1 1.1 1.3 1.8 1.8 1.4 1.1-1.8-3.5-1.4-5.9 1.4-8 2.1-1.5 3.1-1.8 4-.9 1.2 1.2 1.3.9 1.5-4.3.1-1.9-.3-2.6-1.6-2.6-1.2 0-2.1 1-2.5 2.6zM93.2 37.6c1.4 1.4 2.1 1.5 3 .6.8-.8.9-1.2.1-1.2-.6 0-2-.3-3-.6-1.7-.7-1.7-.6-.1 1.2zM12.8 39.7c-2.4.6-2.3 1.9.2 2.6 1.1.3 2 .1 2-.5 0-.5.5-.6 1-.3.6.4.8 1.5.5 2.5-.5 1.5-.2 1.7 1.5 1.3 2.5-.7 2.6-2.4 0-4.6-2.1-1.7-2.3-1.8-5.2-1zM31.5 41c-.3.5-.1 1 .4 1 .6 0 1.1-.5 1.1-1 0-.6-.2-1-.4-1-.3 0-.8.4-1.1 1zM37.8 43.9C39 45 40 46.5 40 47.2c0 .8 1.4 2.4 3 3.6 1.7 1.3 3 3.1 3 4.2s.5 2 1 2c2.2 0 .9-5.1-2-7.6-1.6-1.5-2.7-3.1-2.4-3.6.3-.5 0-.7-.8-.6-.7.2-1.2-.3-1-1 .1-.8-.2-1.1-.7-.8-.5.4-1.2.2-1.6-.4-.3-.5-1.2-1-1.8-1-.7.1-.2.9 1.1 1.9zM20 47c0 .5.5 1 1 1 .6 0 1-.5 1-1 0-.6-.4-1-1-1-.5 0-1 .4-1 1zM25 51c1.2 1.6 2.4 3 2.6 3 .3 0-.4-1.4-1.6-3-1.2-1.7-2.4-3-2.6-3-.3 0 .4 1.3 1.6 3zM101.1 53.9c1.3 1.1 2.6 1.7 2.9 1.4.6-.6-3-3.3-4.3-3.3-.5 0 .1.9 1.4 1.9zM48.5 58c-.3.5-1.4 1-2.5 1-1 0-2.1.7-2.4 1.6-.9 2.4-.7 3.1.5 1.1.5-.9 1.7-1.7 2.5-1.7.9 0 2.2-.7 3-1.5.9-.8 1.1-1.5.5-1.5-.5 0-1.3.4-1.6 1zM108.5 59c.3.5 1 1 1.6 1 .5 0 .9-.5.9-1 0-.6-.7-1-1.6-1-.8 0-1.2.4-.9 1zM50.3 60.5c-1 1.1-.9 1.3.6 1.2 1.1-.1 1.7-.7 1.4-1.4-.6-1.6-.5-1.6-2 .2zM61 63.7c0 .6.8 1.7 1.8 2.4 1.6 1.3 1.6 1.3.2-.6-.8-1.1-1.6-2.2-1.7-2.4-.2-.2-.3 0-.3.6zM80.5 74c.4.6 1.1.8 1.6.5 1.4-.9 1.1-1.5-.7-1.5-.8 0-1.2.5-.9 1zM67.8 86.7c.7.3 1.6.2 1.9-.1.4-.3-.2-.6-1.3-.5-1.1 0-1.4.3-.6.6z"/></svg>